<svg xmlns="http://www.w3.org/2000/svg" viewBox="0 0 136.14 65.78">
    <path d="M21.53,15q5.59,0,8.45,2a6.77,6.77,0,0,1,2.86,5.94,9,9,0,0,1-2,6A10,10,0,0,1,25,32.1v0.15a7.36,7.36,0,0,1,3.89,2.36A6.6,6.6,0,0,1,30.39,39q0,5.59-3.74,8.62t-10.33,3H3.59L11.13,15h10.4ZM12.35,44.41h4.39A6.59,6.59,0,0,0,21.22,43a4.94,4.94,0,0,0,1.62-3.93q0-4-4.47-4h-4ZM15.6,29.1h3.64a7,7,0,0,0,4.43-1.18,4.11,4.11,0,0,0,1.48-3.41q0-3.34-4.15-3.34H17.28Z"/>
    <path d="M34.64,50.66L42.18,15h7.47L43.41,44.41h12.5l-1.32,6.25H34.64Z"/>
    <path d="M60.6,50.66L68.21,15h7.45L68,50.66H60.6Z"/>
    <path d="M89.38,50.66H81.93l6.2-29.39H79.54L80.88,15h24.66l-1.34,6.3H95.58Z"/>
    <path d="M126,50.66H102L103,45.75l19-24.54H108.68L110,15h22.85l-1,4.93L112.73,44.41h14.55Z"/>
    <polygon points="1.29 59.5 0 65.78 122.86 65.78 124.14 59.5 1.29 59.5"/>
    <polygon points="13.29 0 12 6.28 134.85 6.28 136.14 0 13.29 0"/>
</svg>